<svg xmlns="http://www.w3.org/2000/svg" viewBox="0 0 103.04 66.64"><defs><style>.cls-1{fill:#e2e4e4;}.cls-2{fill:#006891;}.cls-3{fill:#00aa80;}.cls-4{fill:#fdbb3b;}.cls-5{fill:#eb496f;}.cls-6{font-size:37.09px;fill:#08b;font-family:Montserrat-ExtraBold, Montserrat;font-weight:800;}.cls-7{letter-spacing:-0.01em;}.cls-8{letter-spacing:0.01em;}</style></defs><g id="Layer_2" data-name="Layer 2"><g id="OBJECTS"><rect class="cls-1" width="103.04" height="66.64" rx="4.45"/><path class="cls-2" d="M103,4.45v4.6H0V4.45A4.45,4.45,0,0,1,4.45,0H98.59A4.45,4.45,0,0,1,103,4.45Z"/><path class="cls-3" d="M20.36,4.52A2.54,2.54,0,1,1,17.82,2,2.54,2.54,0,0,1,20.36,4.52Z"/><path class="cls-4" d="M13.74,4.52A2.54,2.54,0,1,1,11.21,2,2.53,2.53,0,0,1,13.74,4.52Z"/><path class="cls-5" d="M7,4.52A2.54,2.54,0,1,1,4.42,2,2.54,2.54,0,0,1,7,4.52Z"/><text class="cls-6" transform="translate(13.74 49.49)"><tspan class="cls-7">C</tspan><tspan class="cls-8" x="27.08" y="0">+</tspan><tspan x="49.97" y="0">+</tspan></text></g></g></svg>