<svg xmlns="http://www.w3.org/2000/svg" viewBox="0 0 166.77 107.86"><defs><style>.cls-1{fill:#e2e4e4;}.cls-2{fill:#006891;}.cls-3{fill:#00aa80;}.cls-4{fill:#fdbb3b;}.cls-5{fill:#eb496f;}.cls-6{fill:#fff;}.cls-7{font-size:11.02px;fill:#08b;font-family:Montserrat-ExtraBold, Montserrat;font-weight:800;}</style></defs><g id="Layer_2" data-name="Layer 2"><g id="OBJECTS"><rect class="cls-1" width="166.77" height="107.86" rx="7.2"/><path class="cls-2" d="M166.77,7.2v7.45H0V7.2A7.2,7.2,0,0,1,7.2,0H159.57A7.2,7.2,0,0,1,166.77,7.2Z"/><path class="cls-3" d="M33,7.32a4.11,4.11,0,1,1-4.11-4.1A4.11,4.11,0,0,1,33,7.32Z"/><path class="cls-4" d="M22.24,7.32a4.11,4.11,0,1,1-4.1-4.1A4.11,4.11,0,0,1,22.24,7.32Z"/><path class="cls-5" d="M11.26,7.32a4.11,4.11,0,1,1-4.1-4.1A4.11,4.11,0,0,1,11.26,7.32Z"/><rect class="cls-4" x="61.11" y="36.47" width="48.6" height="5.39"/><polyline class="cls-6" points="153.19 36.47 116.07 36.47 116.07 41.86 153.19 41.86"/><polyline class="cls-2" points="17.14 51.34 100.47 51.34 100.47 45.95 17.14 45.95"/><polyline class="cls-2" points="39.81 29.1 123.14 29.1 123.14 23.71 39.81 23.71"/><rect class="cls-4" x="107.01" y="45.95" width="20.25" height="5.39"/><polyline class="cls-6" points="153.19 45.95 133.62 45.95 133.62 51.34 153.19 51.34"/><polyline class="cls-6" points="153.19 23.71 129.37 23.71 129.37 29.1 153.19 29.1"/><polyline class="cls-2" points="17.14 60.82 61.11 60.82 61.11 55.43 17.14 55.43"/><rect class="cls-4" x="67.64" y="55.43" width="59.62" height="5.39"/><polyline class="cls-4" points="34.12 70.29 61.11 70.29 61.11 64.91 34.12 64.91"/><polyline class="cls-6" points="153.19 64.91 67.47 64.91 67.47 70.29 153.19 70.29"/><polyline class="cls-2" points="17.14 79.77 54.58 79.77 54.58 74.38 17.14 74.38"/><rect class="cls-4" x="61.11" y="74.38" width="66.15" height="5.39"/><polyline class="cls-6" points="153.19 74.38 133.62 74.38 133.62 79.77 153.19 79.77"/><polyline class="cls-2" points="17.14 89.25 79.83 89.25 79.83 83.86 17.14 83.86"/><rect class="cls-4" x="86.36" y="83.86" width="23.35" height="5.39"/><polyline class="cls-6" points="153.19 83.86 116.07 83.86 116.07 89.25 153.19 89.25"/><rect class="cls-4" x="44.56" y="93.34" width="82.7" height="5.39"/><polyline class="cls-6" points="153.19 93.34 133.62 93.34 133.62 98.73 153.19 98.73"/><text class="cls-7" transform="translate(17.14 31.16)">&lt;/&gt;</text></g></g></svg>