<svg xmlns="http://www.w3.org/2000/svg" viewBox="0 0 79.9 51.67"><defs><style>.cls-1{fill:#e2e4e4;}.cls-2{fill:#006891;}.cls-3{fill:#00aa80;}.cls-4,.cls-6{fill:#fdbb3b;}.cls-5{fill:#eb496f;}.cls-6{font-size:22.13px;font-family:Montserrat-ExtraBold, Montserrat;font-weight:800;}</style></defs><g id="Layer_2" data-name="Layer 2"><g id="OBJECTS"><rect class="cls-1" width="79.9" height="51.67" rx="3.45"/><path class="cls-2" d="M79.9,3.45V7H0V3.45A3.44,3.44,0,0,1,3.45,0h73A3.45,3.45,0,0,1,79.9,3.45Z"/><path class="cls-3" d="M15.78,3.51a2,2,0,1,1-2-2A2,2,0,0,1,15.78,3.51Z"/><path class="cls-4" d="M10.65,3.51a2,2,0,1,1-2-2A2,2,0,0,1,10.65,3.51Z"/><path class="cls-5" d="M5.39,3.51a2,2,0,1,1-2-2A2,2,0,0,1,5.39,3.51Z"/><text class="cls-6" transform="translate(6.63 35.6)">HTML</text></g></g></svg>