<svg xmlns="http://www.w3.org/2000/svg" xmlns:xlink="http://www.w3.org/1999/xlink" viewBox="0 0 544.78 544.78"><defs><style>.cls-1,.cls-2{fill-rule:evenodd;}.cls-1{fill:url(#linear-gradient);}.cls-2{fill:#fff;}</style><linearGradient id="linear-gradient" x1="454.87" y1="437.7" x2="82.08" y2="99.98" gradientUnits="userSpaceOnUse"><stop offset="0" stop-color="#fec053"/><stop offset="0.33" stop-color="#f2203e"/><stop offset="0.65" stop-color="#b729a8"/><stop offset="1" stop-color="#5342d6"/></linearGradient></defs><g id="Layer_2" data-name="Layer 2"><g id="_13" data-name="13"><path class="cls-1" d="M90.85,0H453.94c49.93,0,90.84,40.9,90.84,90.85V453.94c0,49.94-40.91,90.84-90.84,90.84H90.85C40.9,544.78,0,503.88,0,453.94V90.85C0,40.9,40.9,0,90.85,0Z"/><path class="cls-2" d="M399.16,272.39A126.77,126.77,0,1,0,272.39,399.16,126.75,126.75,0,0,0,399.16,272.39Zm-2.4-144a20.4,20.4,0,1,0,20.4,20.4,20.39,20.39,0,0,0-20.4-20.4Zm-228-29.32H376a69.85,69.85,0,0,1,69.68,69.69V376A69.79,69.79,0,0,1,376,445.7H168.77A69.85,69.85,0,0,1,99.08,376V168.77a69.91,69.91,0,0,1,69.69-69.69ZM376,75.85H168.77c-51.09,0-92.92,41.83-92.92,92.92V376a93.16,93.16,0,0,0,92.92,92.92H376A93.1,93.1,0,0,0,468.93,376V168.77c0-51.09-41.74-92.92-92.91-92.92ZM171.94,272.39A100.46,100.46,0,1,1,272.39,372.84,100.48,100.48,0,0,1,171.94,272.39Z"/></g></g></svg>