<svg xmlns="http://www.w3.org/2000/svg" viewBox="0 0 1219.06 790.84"><defs><style>.cls-1{isolation:isolate;}.cls-2{fill:#dc4437;}.cls-3{fill:#bf7264;}.cls-4,.cls-9{fill:#5b6b1a;}.cls-11,.cls-5{fill:#e6e6e6;}.cls-6{fill:#e9e9e9;}.cls-7{fill:#f99662;}.cls-8{fill:#748828;}.cls-11,.cls-13,.cls-9{mix-blend-mode:multiply;}.cls-9{opacity:0.44;}.cls-10{fill:#fffbf3;}.cls-12{fill:#ffd800;}.cls-13{fill:#ff4900;opacity:0.45;}.cls-14{fill:#ffa97a;}.cls-15{fill:#c12925;}</style></defs><g class="cls-1"><g id="Layer_2" data-name="Layer 2"><g id="Layer_1-2" data-name="Layer 1"><path class="cls-2" d="M948.05,89c-24.42-10.36-59.9-41.95-14.22-71.78s68.61-18.36,69.2,14.55c.32,17.47-15.62,35.49-10.79,39.37,59.39,18.7,34.36,52.15,58.62,73.23s25.38,48,25.38,48c-10.2-25.77-29.2-25.8-29.2-25.8-2.43,38.62,48.64,55.46,48.64,55.46-5.45,8.13-24.41.44-15.94,10.7,41.93,29.24,31.16,60.86,31.16,60.86-34.85-27.1-67.35-40.37-76.09-58.76s-56.11-25.21-59.61-76.63S948.05,89,948.05,89Z"/><path class="cls-3" d="M811.21,593.2S673.42,388.2,622.5,391.4,398.2,695.64,398.2,695.64s-76.12,33-84.11,41,152.5,4.12,152.5,4.12S455.9,693,468.3,680.55C575.84,573,587.18,548.36,603.81,531.73S772.39,673,772.39,673Z"/><path class="cls-4" d="M462,688c9.29-3.43,16.29,2.79,18,12.82,3.64,21.48,11.77,52.86,9.06,54.67-4.14,2.78-182.08,2.3-193.32-7.3s91-65.09,110.35-60.92C423.35,691,420.22,703.42,462,688Z"/><path class="cls-5" d="M488.35,733.58c1.16,10.65,2.09,21,.72,21.88-4.14,2.78-182.84,3.39-193.8-5.81-1.72-1.44-1.51-4.17,1.54-7.48C332.45,747.39,446.77,737.51,488.35,733.58Z"/><path class="cls-6" d="M296.81,742.17c43.77,7.75,149.89-3.46,191.54-8.59C366.73,739.73,323,744.73,296.81,742.17Z"/><path class="cls-7" d="M784.25,576S643,399.1,585.84,391.55s-206,282.53-227.53,304.09S265.57,728,265.57,738.78s167.14,4.31,167.14,4.31S431.63,710.74,436,687,553.49,564.35,578.29,528.77s153.05,158.7,153.05,158.7Z"/><path class="cls-8" d="M762.69,531.73s-65.78,60.39-77.64,122.94c0,0,91.66,105.67,146.65,118.62S985.91,736.62,1008.55,687s-139.11-88.43-139.11-88.43Z"/><path class="cls-9" d="M938.06,696.62a496.66,496.66,0,0,0,52.18,16.13c8-8.35,14.34-17,18.31-25.73,22.65-49.61-139.11-88.43-139.11-88.43S866.49,670.28,938.06,696.62Z"/><path class="cls-10" d="M979.41,304.86s-66.83,114.73-57.13,165.41-52.84,128.32-52.84,128.32S900.72,687,1008.55,687s100.15-339.82,70-370S1042.52,290.63,979.41,304.86Z"/><path class="cls-11" d="M1078.51,317c-14.07-14.08-22.85-20.76-34.6-22.44-5.43,1-10,179.66-48.4,248.18-45.81,81.84-126.07,55.84-126.07,55.84s14.86,42,59.41,68.12c13.56,3.71,25.54,4.58,34.78,1.35,53.28-18.62,111.88-187.89,120.41-244.46C1087.63,399.76,1093.84,332.34,1078.51,317Z"/><path class="cls-12" d="M753.06,529.37h0a10.52,10.52,0,0,1-14.56-3L648.66,389.25a10.51,10.51,0,0,1,3-14.56h0a10.51,10.51,0,0,1,14.55,3l89.85,137.09A10.53,10.53,0,0,1,753.06,529.37Z"/><path class="cls-7" d="M938.06,255.47s13.43,9.2,19.07,17.43c11.75,17.15,19.85,29.54,14.28,49.54-4.32,15.5-9.35,38.23-9.35,60,0,38,76.69-88.6,76.69-88.6L985.3,220.75Z"/><path class="cls-13" d="M993.36,231.77l-1.9-2.6-1.81,1.13L946.54,262c3.81,3.2,8,7.16,10.59,10.92a165,165,0,0,1,10.61,16.89c11-14.3,18.65-31,22.74-42.56A65.17,65.17,0,0,0,993.36,231.77Z"/><path class="cls-14" d="M888.89,151.65s-13.87,13.23-6,56.67,28,85,46.54,84.16,54.94-37.77,63.52-62.35-32.1-86.62-57.88-90.71S888.89,151.65,888.89,151.65Z"/><path class="cls-2" d="M1001,86.43c6.76,3.9,23.28,25.69,30.72,53.76s-31.14,86.14-39.84,93c-3.52-6.1-10.62-24.53-28.19-17.56,0,0-2.75-4.44-11.18-18.83-31.68-54-70.64-28.83-70.64-28.83s-9.21-34.76,17.4-56.4c22.35-18.18,30.91-20.1,50.28-31.6S988.35,79.09,1001,86.43Z"/><path class="cls-15" d="M1003.85,88.57c7,9.3,15.58,27.92,17.23,50.05,2.4,32.09-19.48,84-29.16,94.57,11-4,31.19-30.07,36.34-76.93C1032.62,116.6,1011.62,95.63,1003.85,88.57Z"/><path class="cls-7" d="M1056.7,295.16c-16.71-4.67-33.83,6.44-38.7,23.1-6.58,22.5-17.76,62.55-30.36,115.34-20.07,84.12-15.21,121.32-65.36,121.32S811.89,523,801,512.05s-40.44-42-48.53-42-32.66-33.37-42.79-24.41c-7.28,6.44,32.38,38.62,32.38,44s-1.84,26.9,11,39.78,157.29,119,210.57,102.2S1075.51,462,1084,411C1092.33,361.28,1092.51,305.18,1056.7,295.16Z"/><path class="cls-8" d="M413.11,680.91c10.29-3.8,21.73,3.09,23.62,14.2s4.07,24.82,5.54,36.31c1.64,12.93-3.73,19-5.32,20.07-4.59,3.08-195.53,6.71-208-3.92s100.74-72.08,122.21-67.47C370.29,684.21,366.82,698,413.11,680.91Z"/><path class="cls-5" d="M442.27,731.42c1.28,11.8,2.31,23.22.8,24.24-4.59,3.07-202.49,3.74-214.64-6.44-1.9-1.59-1.67-4.62,1.71-8.28C269.61,746.72,396.22,735.78,442.27,731.42Z"/><path class="cls-6" d="M230.14,740.94c48.47,8.58,166-3.84,212.13-9.52C307.58,738.24,259.12,743.78,230.14,740.94Z"/><path class="cls-14" d="M959.15,217.28c-.5-27.43,15.3-32.59,21.94-18.26,6,12.9,3.84,30.15-9.44,32.49C956.67,226.81,959.15,217.28,959.15,217.28Z"/><path class="cls-10" d="M1199.15,753.51H19.9A19.9,19.9,0,0,0,0,773.42V786a20,20,0,0,0,.58,4.8A19.91,19.91,0,0,1,19.9,775.73H1199.15a19.9,19.9,0,0,1,19.32,15.11,20,20,0,0,0,.59-4.8V773.42A19.91,19.91,0,0,0,1199.15,753.51Z"/><path class="cls-10" d="M312.76,172.53V292.94a15.36,15.36,0,0,0,15.36,15.36H456.55l85.39,24.83L526.58,308.3h0a15.36,15.36,0,0,0,15.36-15.36V172.53a15.36,15.36,0,0,0-15.36-15.36H328.12A15.36,15.36,0,0,0,312.76,172.53Z"/><rect class="cls-2" x="351.26" y="183.48" width="152.18" height="95.79" rx="10.08" transform="translate(854.7 462.75) rotate(180)"/><polygon class="cls-10" points="367.05 192.04 485.56 192.04 427.3 247.07 367.05 192.04"/><polygon class="cls-10" points="427.41 261.57 495.53 197.22 495.53 270.71 359.17 270.71 359.17 199.24 427.41 261.57"/></g></g></g></svg>